<mxfile host="65bd71144e" modified="2020-10-11T01:32:22.670Z" agent="5.0 (X11; Linux x86_64) AppleWebKit/537.36 (KHTML, like Gecko) Code/1.50.0 Chrome/83.0.4103.122 Electron/9.2.1 Safari/537.36" etag="oMVss1yuQI9mAC_xnlqk" version="13.6.5">
    <diagram name="Layout Sketch" id="03018318-947c-dd8e-b7a3-06fadd420f32">
        <mxGraphModel dx="1291" dy="851" grid="1" gridSize="10" guides="1" tooltips="1" connect="1" arrows="1" fold="1" page="1" pageScale="1" pageWidth="1100" pageHeight="850" math="0" shadow="0" extFonts="Architects Daughter^https://fonts.googleapis.com/css?family=Architects+Daughter">
            <root>
                <mxCell id="0"/>
                <mxCell id="1" parent="0"/>
                <mxCell id="677b7b8949515195-1" value="" style="whiteSpace=wrap;html=1;rounded=0;shadow=0;labelBackgroundColor=none;strokeWidth=1;fillColor=none;fontFamily=Architects Daughter;fontSize=12;align=center;comic=1;sketch=1;" parent="1" vertex="1">
                    <mxGeometry x="20" y="20" width="1060" height="810" as="geometry"/>
                </mxCell>
                <mxCell id="10" value="" style="rounded=0;whiteSpace=wrap;html=1;fontFamily=Architects Daughter;shadow=0;strokeWidth=1;fillColor=none;comic=1;sketch=1;" parent="1" vertex="1">
                    <mxGeometry x="250" y="160" width="580" height="460" as="geometry"/>
                </mxCell>
                <mxCell id="677b7b8949515195-2" value="LOGO" style="whiteSpace=wrap;html=1;rounded=0;shadow=0;labelBackgroundColor=none;strokeWidth=1;fontFamily=Architects Daughter;fontSize=28;align=center;comic=1;FType=g;sketch=1;" parent="1" vertex="1">
                    <mxGeometry x="30" y="40" width="210" height="80" as="geometry"/>
                </mxCell>
                <mxCell id="677b7b8949515195-3" value="Search" style="strokeWidth=1;shadow=0;dashed=0;align=center;html=1;shape=mxgraph.mockup.forms.searchBox;mainText=;strokeColor2=#008cff;fontSize=17;align=left;spacingLeft=3;rounded=0;labelBackgroundColor=none;comic=1;fontFamily=Architects Daughter;sketch=1;" parent="1" vertex="1">
                    <mxGeometry x="850" y="90" width="210" height="30" as="geometry"/>
                </mxCell>
                <mxCell id="677b7b8949515195-4" value="Topic 1" style="text;html=1;points=[];align=left;verticalAlign=top;spacingTop=-4;fontSize=14;fontFamily=Architects Daughter;sketch=1;" parent="1" vertex="1">
                    <mxGeometry x="850" y="46" width="60" height="20" as="geometry"/>
                </mxCell>
                <mxCell id="677b7b8949515195-5" value="Topic 2" style="text;html=1;points=[];align=left;verticalAlign=top;spacingTop=-4;fontSize=14;fontFamily=Architects Daughter;sketch=1;" parent="1" vertex="1">
                    <mxGeometry x="930" y="46" width="60" height="20" as="geometry"/>
                </mxCell>
                <mxCell id="677b7b8949515195-6" value="Topic 3" style="text;html=1;points=[];align=left;verticalAlign=top;spacingTop=-4;fontSize=14;fontFamily=Architects Daughter;sketch=1;" parent="1" vertex="1">
                    <mxGeometry x="1000" y="46" width="60" height="20" as="geometry"/>
                </mxCell>
                <mxCell id="677b7b8949515195-9" value="" style="line;strokeWidth=2;html=1;rounded=0;shadow=0;labelBackgroundColor=none;fillColor=none;fontFamily=Architects Daughter;fontSize=14;align=center;comic=1;sketch=1;labelBorderColor=#000000;" parent="1" vertex="1">
                    <mxGeometry x="20" y="136" width="1060" height="10" as="geometry"/>
                </mxCell>
                <mxCell id="677b7b8949515195-15" value="&lt;div style=&quot;text-align: justify&quot;&gt;&lt;br&gt;&lt;/div&gt;" style="whiteSpace=wrap;html=1;rounded=0;shadow=0;labelBackgroundColor=none;strokeWidth=1;fillColor=none;fontFamily=Architects Daughter;fontSize=12;align=center;verticalAlign=top;spacing=10;comic=1;sketch=1;" parent="1" vertex="1">
                    <mxGeometry x="250" y="640" width="580" height="180" as="geometry"/>
                </mxCell>
                <mxCell id="677b7b8949515195-25" value="" style="whiteSpace=wrap;html=1;rounded=0;shadow=0;labelBackgroundColor=none;strokeWidth=1;fillColor=none;fontFamily=Architects Daughter;fontSize=12;align=center;comic=1;sketch=1;" parent="1" vertex="1">
                    <mxGeometry x="840" y="160" width="230" height="460" as="geometry"/>
                </mxCell>
                <mxCell id="677b7b8949515195-26" value="" style="whiteSpace=wrap;html=1;rounded=0;shadow=0;labelBackgroundColor=none;strokeWidth=1;fillColor=none;fontFamily=Architects Daughter;fontSize=12;align=center;comic=1;sketch=1;" parent="1" vertex="1">
                    <mxGeometry x="840" y="640" width="230" height="180" as="geometry"/>
                </mxCell>
                <mxCell id="8" value="Feed" style="whiteSpace=wrap;html=1;rounded=0;shadow=0;labelBackgroundColor=none;strokeWidth=1;fontFamily=Architects Daughter;fontSize=28;align=center;comic=1;sketch=1;fillColor=#ffe6cc;strokeColor=#d79b00;" parent="1" vertex="1">
                    <mxGeometry x="840" y="160" width="230" height="50" as="geometry"/>
                </mxCell>
                <mxCell id="9" value="Weather" style="whiteSpace=wrap;html=1;rounded=0;shadow=0;labelBackgroundColor=none;strokeWidth=1;fontFamily=Architects Daughter;fontSize=28;align=center;comic=1;sketch=1;fillColor=#bac8d3;strokeColor=#23445d;" parent="1" vertex="1">
                    <mxGeometry x="840" y="640" width="230" height="50" as="geometry"/>
                </mxCell>
                <mxCell id="11" value="Map" style="whiteSpace=wrap;html=1;rounded=0;shadow=0;labelBackgroundColor=none;strokeWidth=1;fontFamily=Architects Daughter;fontSize=28;align=center;comic=1;sketch=1;fillColor=#d5e8d4;strokeColor=#82b366;" parent="1" vertex="1">
                    <mxGeometry x="250" y="160" width="580" height="50" as="geometry"/>
                </mxCell>
                <mxCell id="12" value="Lorem ipsum dolor sit amet, consectetur adipisicing elit, sed do eiusmod tempor incididunt ut labore et dolore magna aliqua. Ut enim ad minim veniam, quis nostrud exercitation ullamco laboris nisi ut aliquip ex ea commodo consequat. Duis aute irure dolor in reprehenderit in voluptate velit esse cillum dolore eu fugiat nulla pariatur. Excepteur sint occaecat cupidatat non proident, sunt in culpa qui officia deserunt mollit anim id est laborum." style="text;spacingTop=-5;whiteSpace=wrap;html=1;align=left;fontSize=12;fontFamily=Helvetica;fillColor=none;strokeColor=none;rounded=0;shadow=0;comic=1;sketch=1;" parent="1" vertex="1">
                    <mxGeometry x="270" y="700" width="550" height="105" as="geometry"/>
                </mxCell>
                <mxCell id="13" value="Details" style="whiteSpace=wrap;html=1;rounded=0;shadow=0;labelBackgroundColor=none;strokeWidth=1;fontFamily=Architects Daughter;fontSize=28;align=center;comic=1;sketch=1;fillColor=#e1d5e7;strokeColor=#9673a6;" parent="1" vertex="1">
                    <mxGeometry x="250" y="640" width="580" height="50" as="geometry"/>
                </mxCell>
                <mxCell id="14" value="" style="whiteSpace=wrap;html=1;rounded=0;shadow=0;labelBackgroundColor=none;strokeWidth=1;fillColor=none;fontFamily=Architects Daughter;fontSize=12;align=center;comic=1;sketch=1;" parent="1" vertex="1">
                    <mxGeometry x="30" y="160" width="210" height="460" as="geometry"/>
                </mxCell>
                <mxCell id="15" value="Incidents" style="whiteSpace=wrap;html=1;rounded=0;shadow=0;labelBackgroundColor=none;strokeWidth=1;fontFamily=Architects Daughter;fontSize=28;align=center;comic=1;sketch=1;fillColor=#f8cecc;strokeColor=#b85450;" parent="1" vertex="1">
                    <mxGeometry x="30" y="160" width="210" height="50" as="geometry"/>
                </mxCell>
                <mxCell id="16" value="" style="verticalLabelPosition=bottom;shadow=0;dashed=0;align=center;html=1;verticalAlign=top;strokeWidth=1;shape=mxgraph.mockup.navigation.mapNavigator;fillColor2=#99ddff;strokeColor2=none;strokeColor3=#ffffff;rounded=0;comic=1;sketch=1;fillColor=none;fontFamily=Architects Daughter;strokeColor=#333333;" parent="1" vertex="1">
                    <mxGeometry x="740" y="490" width="60" height="100" as="geometry"/>
                </mxCell>
                <mxCell id="17" value="" style="verticalLabelPosition=top;shadow=0;dashed=0;align=center;html=1;verticalAlign=bottom;strokeWidth=1;shape=mxgraph.mockup.misc.pin;fillColor2=#dd0000;fillColor3=#440000;strokeColor=#660000;rounded=0;comic=1;sketch=1;fillColor=none;fontFamily=Architects Daughter;" parent="1" vertex="1">
                    <mxGeometry x="410" y="335" width="10" height="25" as="geometry"/>
                </mxCell>
                <mxCell id="18" value="" style="verticalLabelPosition=top;shadow=0;dashed=0;align=center;html=1;verticalAlign=bottom;strokeWidth=1;shape=mxgraph.mockup.misc.pin;fillColor2=#ccccff;fillColor3=#0000ff;strokeColor=#000066;rounded=0;comic=1;sketch=1;fillColor=none;fontFamily=Architects Daughter;" parent="1" vertex="1">
                    <mxGeometry x="620" y="413" width="10" height="25" as="geometry"/>
                </mxCell>
                <mxCell id="20" value="" style="ellipse;whiteSpace=wrap;html=1;aspect=fixed;rounded=0;shadow=0;comic=1;sketch=1;strokeWidth=1;fillColor=none;fontFamily=Architects Daughter;" parent="1" vertex="1">
                    <mxGeometry x="860" y="710" width="35" height="35" as="geometry"/>
                </mxCell>
                <mxCell id="21" value="" style="ellipse;shape=cloud;whiteSpace=wrap;html=1;rounded=0;shadow=0;comic=1;sketch=1;strokeWidth=1;fontFamily=Architects Daughter;fillColor=#647687;strokeColor=#314354;fontColor=#ffffff;" parent="1" vertex="1">
                    <mxGeometry x="860" y="720" width="70" height="40" as="geometry"/>
                </mxCell>
                <mxCell id="22" value="&lt;h1&gt;&lt;font style=&quot;font-size: 12px&quot;&gt;*** RFD: TARGET HAZARD ***&lt;/font&gt;&lt;/h1&gt;&lt;p&gt;Lorem ipsum dolor sit amet, consectetur adipisicing elit, sed do eiusmod tempor incididunt ut labore et dolore magna aliqua.&lt;/p&gt;" style="text;html=1;strokeColor=none;fillColor=none;spacing=5;spacingTop=-20;whiteSpace=wrap;overflow=hidden;rounded=0;shadow=0;comic=1;sketch=1;fontFamily=Architects Daughter;" parent="1" vertex="1">
                    <mxGeometry x="860" y="220" width="190" height="120" as="geometry"/>
                </mxCell>
                <mxCell id="23" value="Scattered Thunderstorms" style="text;html=1;strokeColor=none;fillColor=none;align=left;verticalAlign=middle;whiteSpace=wrap;rounded=0;shadow=0;comic=1;sketch=1;fontFamily=Architects Daughter;" parent="1" vertex="1">
                    <mxGeometry x="950" y="710" width="100" height="40" as="geometry"/>
                </mxCell>
                <mxCell id="24" value="" style="strokeWidth=1;shadow=0;dashed=0;align=center;html=1;shape=mxgraph.mockup.forms.rrect;rSize=5;fillColor=#ffffff;rounded=0;comic=1;sketch=1;fontFamily=Architects Daughter;fontSize=11;strokeColor=#333333;" parent="1" vertex="1">
                    <mxGeometry x="40" y="645" width="190" height="165" as="geometry"/>
                </mxCell>
                <mxCell id="25" value="October 2014" style="strokeWidth=1;shadow=0;dashed=0;align=center;html=1;shape=mxgraph.mockup.forms.anchor;fontFamily=Architects Daughter;fontColor=#333333;strokeColor=#333333;" parent="24" vertex="1">
                    <mxGeometry x="35.625" y="7.542857142857143" width="118.75" height="18.857142857142858" as="geometry"/>
                </mxCell>
                <mxCell id="26" value="&amp;lt;" style="strokeWidth=1;shadow=0;dashed=0;align=center;html=1;shape=mxgraph.mockup.forms.rrect;rSize=4;fontSize=19;fontStyle=1;fontFamily=Architects Daughter;fontColor=#333333;strokeColor=#333333;" parent="24" vertex="1">
                    <mxGeometry x="9.5" y="7.542857142857143" width="29.6875" height="18.857142857142858" as="geometry"/>
                </mxCell>
                <mxCell id="27" value="&amp;gt;" style="strokeWidth=1;shadow=0;dashed=0;align=center;html=1;shape=mxgraph.mockup.forms.rrect;rSize=4;fontSize=19;fontStyle=1;fontFamily=Architects Daughter;fontColor=#333333;strokeColor=#333333;" parent="24" vertex="1">
                    <mxGeometry x="150.8125" y="7.542857142857143" width="29.6875" height="18.857142857142858" as="geometry"/>
                </mxCell>
                <mxCell id="28" value="Mo" style="strokeWidth=1;shadow=0;dashed=0;align=center;html=1;shape=mxgraph.mockup.forms.anchor;fontFamily=Architects Daughter;fontColor=#333333;strokeColor=#333333;" parent="24" vertex="1">
                    <mxGeometry x="11.875" y="26.4" width="23.75" height="18.857142857142858" as="geometry"/>
                </mxCell>
                <mxCell id="29" value="Tu" style="strokeWidth=1;shadow=0;dashed=0;align=center;html=1;shape=mxgraph.mockup.forms.anchor;fontFamily=Architects Daughter;fontColor=#333333;strokeColor=#333333;" parent="24" vertex="1">
                    <mxGeometry x="35.625" y="26.4" width="23.75" height="18.857142857142858" as="geometry"/>
                </mxCell>
                <mxCell id="30" value="We" style="strokeWidth=1;shadow=0;dashed=0;align=center;html=1;shape=mxgraph.mockup.forms.anchor;fontFamily=Architects Daughter;fontColor=#333333;strokeColor=#333333;" parent="24" vertex="1">
                    <mxGeometry x="59.375" y="26.4" width="23.75" height="18.857142857142858" as="geometry"/>
                </mxCell>
                <mxCell id="31" value="Th" style="strokeWidth=1;shadow=0;dashed=0;align=center;html=1;shape=mxgraph.mockup.forms.anchor;fontFamily=Architects Daughter;fontColor=#333333;strokeColor=#333333;" parent="24" vertex="1">
                    <mxGeometry x="83.125" y="26.4" width="23.75" height="18.857142857142858" as="geometry"/>
                </mxCell>
                <mxCell id="32" value="Fr" style="strokeWidth=1;shadow=0;dashed=0;align=center;html=1;shape=mxgraph.mockup.forms.anchor;fontFamily=Architects Daughter;fontColor=#333333;strokeColor=#333333;" parent="24" vertex="1">
                    <mxGeometry x="106.875" y="26.4" width="23.75" height="18.857142857142858" as="geometry"/>
                </mxCell>
                <mxCell id="33" value="Sa" style="strokeWidth=1;shadow=0;dashed=0;align=center;html=1;shape=mxgraph.mockup.forms.anchor;fontFamily=Architects Daughter;fontColor=#333333;strokeColor=#333333;" parent="24" vertex="1">
                    <mxGeometry x="130.625" y="26.4" width="23.75" height="18.857142857142858" as="geometry"/>
                </mxCell>
                <mxCell id="34" value="Su" style="strokeWidth=1;shadow=0;dashed=0;align=center;html=1;shape=mxgraph.mockup.forms.anchor;fontFamily=Architects Daughter;fontColor=#333333;strokeColor=#333333;" parent="24" vertex="1">
                    <mxGeometry x="154.375" y="26.4" width="23.75" height="18.857142857142858" as="geometry"/>
                </mxCell>
                <mxCell id="35" value="1" style="strokeWidth=1;shadow=0;dashed=0;align=center;html=1;shape=mxgraph.mockup.forms.rrect;rSize=0;fontFamily=Architects Daughter;fontColor=#333333;strokeColor=#333333;" parent="24" vertex="1">
                    <mxGeometry x="11.875" y="45.25714285714285" width="23.75" height="18.857142857142858" as="geometry"/>
                </mxCell>
                <mxCell id="36" value="2" style="strokeWidth=1;shadow=0;dashed=0;align=center;html=1;shape=mxgraph.mockup.forms.rrect;rSize=0;fontFamily=Architects Daughter;fontColor=#333333;strokeColor=#333333;" parent="24" vertex="1">
                    <mxGeometry x="35.625" y="45.25714285714285" width="23.75" height="18.857142857142858" as="geometry"/>
                </mxCell>
                <mxCell id="37" value="3" style="strokeWidth=1;shadow=0;dashed=0;align=center;html=1;shape=mxgraph.mockup.forms.rrect;rSize=0;fontFamily=Architects Daughter;fontColor=#333333;strokeColor=#333333;" parent="24" vertex="1">
                    <mxGeometry x="59.375" y="45.25714285714285" width="23.75" height="18.857142857142858" as="geometry"/>
                </mxCell>
                <mxCell id="38" value="4" style="strokeWidth=1;shadow=0;dashed=0;align=center;html=1;shape=mxgraph.mockup.forms.rrect;rSize=0;fontFamily=Architects Daughter;fontColor=#333333;strokeColor=#333333;" parent="24" vertex="1">
                    <mxGeometry x="83.125" y="45.25714285714285" width="23.75" height="18.857142857142858" as="geometry"/>
                </mxCell>
                <mxCell id="39" value="5" style="strokeWidth=1;shadow=0;dashed=0;align=center;html=1;shape=mxgraph.mockup.forms.rrect;rSize=0;fontFamily=Architects Daughter;fontColor=#333333;strokeColor=#333333;" parent="24" vertex="1">
                    <mxGeometry x="106.875" y="45.25714285714285" width="23.75" height="18.857142857142858" as="geometry"/>
                </mxCell>
                <mxCell id="40" value="6" style="strokeWidth=1;shadow=0;dashed=0;align=center;html=1;shape=mxgraph.mockup.forms.rrect;rSize=0;fontFamily=Architects Daughter;fontColor=#333333;strokeColor=#333333;" parent="24" vertex="1">
                    <mxGeometry x="130.625" y="45.25714285714285" width="23.75" height="18.857142857142858" as="geometry"/>
                </mxCell>
                <mxCell id="41" value="7" style="strokeWidth=1;shadow=0;dashed=0;align=center;html=1;shape=mxgraph.mockup.forms.rrect;rSize=0;fontFamily=Architects Daughter;fontColor=#333333;strokeColor=#333333;" parent="24" vertex="1">
                    <mxGeometry x="154.375" y="45.25714285714285" width="23.75" height="18.857142857142858" as="geometry"/>
                </mxCell>
                <mxCell id="42" value="8" style="strokeWidth=1;shadow=0;dashed=0;align=center;html=1;shape=mxgraph.mockup.forms.rrect;rSize=0;fontFamily=Architects Daughter;fontColor=#333333;strokeColor=#333333;" parent="24" vertex="1">
                    <mxGeometry x="11.875" y="64.11428571428571" width="23.75" height="18.857142857142858" as="geometry"/>
                </mxCell>
                <mxCell id="43" value="9" style="strokeWidth=1;shadow=0;dashed=0;align=center;html=1;shape=mxgraph.mockup.forms.rrect;rSize=0;fontFamily=Architects Daughter;fontColor=#333333;strokeColor=#333333;" parent="24" vertex="1">
                    <mxGeometry x="35.625" y="64.11428571428571" width="23.75" height="18.857142857142858" as="geometry"/>
                </mxCell>
                <mxCell id="44" value="10" style="strokeWidth=1;shadow=0;dashed=0;align=center;html=1;shape=mxgraph.mockup.forms.rrect;rSize=0;fontFamily=Architects Daughter;fontColor=#333333;strokeColor=#333333;" parent="24" vertex="1">
                    <mxGeometry x="59.375" y="64.11428571428571" width="23.75" height="18.857142857142858" as="geometry"/>
                </mxCell>
                <mxCell id="45" value="11" style="strokeWidth=1;shadow=0;dashed=0;align=center;html=1;shape=mxgraph.mockup.forms.rrect;rSize=0;fontFamily=Architects Daughter;fontColor=#333333;strokeColor=#333333;" parent="24" vertex="1">
                    <mxGeometry x="83.125" y="64.11428571428571" width="23.75" height="18.857142857142858" as="geometry"/>
                </mxCell>
                <mxCell id="46" value="12" style="strokeWidth=1;shadow=0;dashed=0;align=center;html=1;shape=mxgraph.mockup.forms.rrect;rSize=0;fontFamily=Architects Daughter;fontColor=#333333;strokeColor=#333333;" parent="24" vertex="1">
                    <mxGeometry x="106.875" y="64.11428571428571" width="23.75" height="18.857142857142858" as="geometry"/>
                </mxCell>
                <mxCell id="47" value="13" style="strokeWidth=1;shadow=0;dashed=0;align=center;html=1;shape=mxgraph.mockup.forms.rrect;rSize=0;fontFamily=Architects Daughter;fontColor=#333333;strokeColor=#333333;" parent="24" vertex="1">
                    <mxGeometry x="130.625" y="64.11428571428571" width="23.75" height="18.857142857142858" as="geometry"/>
                </mxCell>
                <mxCell id="48" value="14" style="strokeWidth=1;shadow=0;dashed=0;align=center;html=1;shape=mxgraph.mockup.forms.rrect;rSize=0;fontFamily=Architects Daughter;fontColor=#333333;strokeColor=#333333;" parent="24" vertex="1">
                    <mxGeometry x="154.375" y="64.11428571428571" width="23.75" height="18.857142857142858" as="geometry"/>
                </mxCell>
                <mxCell id="49" value="15" style="strokeWidth=1;shadow=0;dashed=0;align=center;html=1;shape=mxgraph.mockup.forms.rrect;rSize=0;fontFamily=Architects Daughter;fontColor=#333333;strokeColor=#333333;" parent="24" vertex="1">
                    <mxGeometry x="11.875" y="82.97142857142858" width="23.75" height="18.857142857142858" as="geometry"/>
                </mxCell>
                <mxCell id="50" value="16" style="strokeWidth=1;shadow=0;dashed=0;align=center;html=1;shape=mxgraph.mockup.forms.rrect;rSize=0;fontFamily=Architects Daughter;fontColor=#333333;strokeColor=#333333;" parent="24" vertex="1">
                    <mxGeometry x="35.625" y="82.97142857142858" width="23.75" height="18.857142857142858" as="geometry"/>
                </mxCell>
                <mxCell id="51" value="17" style="strokeWidth=1;shadow=0;dashed=0;align=center;html=1;shape=mxgraph.mockup.forms.rrect;rSize=0;fontFamily=Architects Daughter;fontColor=#333333;strokeColor=#333333;" parent="24" vertex="1">
                    <mxGeometry x="59.375" y="82.97142857142858" width="23.75" height="18.857142857142858" as="geometry"/>
                </mxCell>
                <mxCell id="52" value="18" style="strokeWidth=1;shadow=0;dashed=0;align=center;html=1;shape=mxgraph.mockup.forms.rrect;rSize=0;fontFamily=Architects Daughter;fontColor=#333333;strokeColor=#333333;" parent="24" vertex="1">
                    <mxGeometry x="83.125" y="82.97142857142858" width="23.75" height="18.857142857142858" as="geometry"/>
                </mxCell>
                <mxCell id="53" value="19" style="strokeWidth=1;shadow=0;dashed=0;align=center;html=1;shape=mxgraph.mockup.forms.rrect;rSize=0;fontFamily=Architects Daughter;fontColor=#333333;strokeColor=#333333;" parent="24" vertex="1">
                    <mxGeometry x="106.875" y="82.97142857142858" width="23.75" height="18.857142857142858" as="geometry"/>
                </mxCell>
                <mxCell id="54" value="20" style="strokeWidth=1;shadow=0;dashed=0;align=center;html=1;shape=mxgraph.mockup.forms.rrect;rSize=0;fontFamily=Architects Daughter;fontColor=#333333;strokeColor=#333333;" parent="24" vertex="1">
                    <mxGeometry x="130.625" y="82.97142857142858" width="23.75" height="18.857142857142858" as="geometry"/>
                </mxCell>
                <mxCell id="55" value="21" style="strokeWidth=1;shadow=0;dashed=0;align=center;html=1;shape=mxgraph.mockup.forms.rrect;rSize=0;fontFamily=Architects Daughter;fontColor=#333333;strokeColor=#333333;" parent="24" vertex="1">
                    <mxGeometry x="154.375" y="82.97142857142858" width="23.75" height="18.857142857142858" as="geometry"/>
                </mxCell>
                <mxCell id="56" value="22" style="strokeWidth=1;shadow=0;dashed=0;align=center;html=1;shape=mxgraph.mockup.forms.rrect;rSize=0;fontFamily=Architects Daughter;fontColor=#333333;strokeColor=#333333;" parent="24" vertex="1">
                    <mxGeometry x="11.875" y="101.82857142857142" width="23.75" height="18.857142857142858" as="geometry"/>
                </mxCell>
                <mxCell id="57" value="23" style="strokeWidth=1;shadow=0;dashed=0;align=center;html=1;shape=mxgraph.mockup.forms.rrect;rSize=0;fontFamily=Architects Daughter;fontColor=#333333;strokeColor=#333333;" parent="24" vertex="1">
                    <mxGeometry x="35.625" y="101.82857142857142" width="23.75" height="18.857142857142858" as="geometry"/>
                </mxCell>
                <mxCell id="58" value="25" style="strokeWidth=1;shadow=0;dashed=0;align=center;html=1;shape=mxgraph.mockup.forms.rrect;rSize=0;fontFamily=Architects Daughter;fontColor=#333333;strokeColor=#333333;" parent="24" vertex="1">
                    <mxGeometry x="83.125" y="101.82857142857142" width="23.75" height="18.857142857142858" as="geometry"/>
                </mxCell>
                <mxCell id="59" value="26" style="strokeWidth=1;shadow=0;dashed=0;align=center;html=1;shape=mxgraph.mockup.forms.rrect;rSize=0;fontFamily=Architects Daughter;fontColor=#333333;strokeColor=#333333;" parent="24" vertex="1">
                    <mxGeometry x="106.875" y="101.82857142857142" width="23.75" height="18.857142857142858" as="geometry"/>
                </mxCell>
                <mxCell id="60" value="27" style="strokeWidth=1;shadow=0;dashed=0;align=center;html=1;shape=mxgraph.mockup.forms.rrect;rSize=0;fontFamily=Architects Daughter;fontColor=#333333;strokeColor=#333333;" parent="24" vertex="1">
                    <mxGeometry x="130.625" y="101.82857142857142" width="23.75" height="18.857142857142858" as="geometry"/>
                </mxCell>
                <mxCell id="61" value="28" style="strokeWidth=1;shadow=0;dashed=0;align=center;html=1;shape=mxgraph.mockup.forms.rrect;rSize=0;fontFamily=Architects Daughter;fontColor=#333333;strokeColor=#333333;" parent="24" vertex="1">
                    <mxGeometry x="154.375" y="101.82857142857142" width="23.75" height="18.857142857142858" as="geometry"/>
                </mxCell>
                <mxCell id="62" value="29" style="strokeWidth=1;shadow=0;dashed=0;align=center;html=1;shape=mxgraph.mockup.forms.rrect;rSize=0;fontFamily=Architects Daughter;fontColor=#333333;strokeColor=#333333;" parent="24" vertex="1">
                    <mxGeometry x="11.875" y="120.68571428571428" width="23.75" height="18.857142857142858" as="geometry"/>
                </mxCell>
                <mxCell id="63" value="30" style="strokeWidth=1;shadow=0;dashed=0;align=center;html=1;shape=mxgraph.mockup.forms.rrect;rSize=0;fontFamily=Architects Daughter;fontColor=#333333;strokeColor=#333333;" parent="24" vertex="1">
                    <mxGeometry x="35.625" y="120.68571428571428" width="23.75" height="18.857142857142858" as="geometry"/>
                </mxCell>
                <mxCell id="64" value="31" style="strokeWidth=1;shadow=0;dashed=0;align=center;html=1;shape=mxgraph.mockup.forms.rrect;rSize=0;fontFamily=Architects Daughter;fontColor=#333333;strokeColor=#333333;" parent="24" vertex="1">
                    <mxGeometry x="59.375" y="120.68571428571428" width="23.75" height="18.857142857142858" as="geometry"/>
                </mxCell>
                <mxCell id="65" value="1" style="strokeWidth=1;shadow=0;dashed=0;align=center;html=1;shape=mxgraph.mockup.forms.rrect;rSize=0;fillColor=#ddeeff;fontFamily=Architects Daughter;fontColor=#333333;strokeColor=#333333;" parent="24" vertex="1">
                    <mxGeometry x="83.125" y="120.68571428571428" width="23.75" height="18.857142857142858" as="geometry"/>
                </mxCell>
                <mxCell id="66" value="2" style="strokeWidth=1;shadow=0;dashed=0;align=center;html=1;shape=mxgraph.mockup.forms.rrect;rSize=0;fillColor=#ddeeff;fontFamily=Architects Daughter;fontColor=#333333;strokeColor=#333333;" parent="24" vertex="1">
                    <mxGeometry x="106.875" y="120.68571428571428" width="23.75" height="18.857142857142858" as="geometry"/>
                </mxCell>
                <mxCell id="67" value="3" style="strokeWidth=1;shadow=0;dashed=0;align=center;html=1;shape=mxgraph.mockup.forms.rrect;rSize=0;fillColor=#ddeeff;fontFamily=Architects Daughter;fontColor=#333333;strokeColor=#333333;" parent="24" vertex="1">
                    <mxGeometry x="130.625" y="120.68571428571428" width="23.75" height="18.857142857142858" as="geometry"/>
                </mxCell>
                <mxCell id="68" value="4" style="strokeWidth=1;shadow=0;dashed=0;align=center;html=1;shape=mxgraph.mockup.forms.rrect;rSize=0;fillColor=#ddeeff;fontFamily=Architects Daughter;fontColor=#333333;strokeColor=#333333;" parent="24" vertex="1">
                    <mxGeometry x="154.375" y="120.68571428571428" width="23.75" height="18.857142857142858" as="geometry"/>
                </mxCell>
                <mxCell id="69" value="5" style="strokeWidth=1;shadow=0;dashed=0;align=center;html=1;shape=mxgraph.mockup.forms.rrect;rSize=0;fillColor=#ddeeff;fontFamily=Architects Daughter;fontColor=#333333;strokeColor=#333333;" parent="24" vertex="1">
                    <mxGeometry x="11.875" y="139.54285714285714" width="23.75" height="18.857142857142858" as="geometry"/>
                </mxCell>
                <mxCell id="70" value="6" style="strokeWidth=1;shadow=0;dashed=0;align=center;html=1;shape=mxgraph.mockup.forms.rrect;rSize=0;fillColor=#ddeeff;fontFamily=Architects Daughter;fontColor=#333333;strokeColor=#333333;" parent="24" vertex="1">
                    <mxGeometry x="35.625" y="139.54285714285714" width="23.75" height="18.857142857142858" as="geometry"/>
                </mxCell>
                <mxCell id="71" value="7" style="strokeWidth=1;shadow=0;dashed=0;align=center;html=1;shape=mxgraph.mockup.forms.rrect;rSize=0;fillColor=#ddeeff;fontFamily=Architects Daughter;fontColor=#333333;strokeColor=#333333;" parent="24" vertex="1">
                    <mxGeometry x="59.375" y="139.54285714285714" width="23.75" height="18.857142857142858" as="geometry"/>
                </mxCell>
                <mxCell id="72" value="8" style="strokeWidth=1;shadow=0;dashed=0;align=center;html=1;shape=mxgraph.mockup.forms.rrect;rSize=0;fillColor=#ddeeff;fontFamily=Architects Daughter;fontColor=#333333;strokeColor=#333333;" parent="24" vertex="1">
                    <mxGeometry x="83.125" y="139.54285714285714" width="23.75" height="18.857142857142858" as="geometry"/>
                </mxCell>
                <mxCell id="73" value="9" style="strokeWidth=1;shadow=0;dashed=0;align=center;html=1;shape=mxgraph.mockup.forms.rrect;rSize=0;fillColor=#ddeeff;fontFamily=Architects Daughter;fontColor=#333333;strokeColor=#333333;" parent="24" vertex="1">
                    <mxGeometry x="106.875" y="139.54285714285714" width="23.75" height="18.857142857142858" as="geometry"/>
                </mxCell>
                <mxCell id="74" value="10" style="strokeWidth=1;shadow=0;dashed=0;align=center;html=1;shape=mxgraph.mockup.forms.rrect;rSize=0;fillColor=#ddeeff;fontFamily=Architects Daughter;fontColor=#333333;strokeColor=#333333;" parent="24" vertex="1">
                    <mxGeometry x="130.625" y="139.54285714285714" width="23.75" height="18.857142857142858" as="geometry"/>
                </mxCell>
                <mxCell id="75" value="11" style="strokeWidth=1;shadow=0;dashed=0;align=center;html=1;shape=mxgraph.mockup.forms.rrect;rSize=0;fillColor=#ddeeff;fontFamily=Architects Daughter;fontColor=#333333;strokeColor=#333333;" parent="24" vertex="1">
                    <mxGeometry x="154.375" y="139.54285714285714" width="23.75" height="18.857142857142858" as="geometry"/>
                </mxCell>
                <mxCell id="76" value="24" style="strokeWidth=1;shadow=0;dashed=0;align=center;html=1;shape=mxgraph.mockup.forms.rrect;rSize=0;strokeWidth=2;fillColor=#008cff;fontFamily=Architects Daughter;fontColor=#333333;strokeColor=#333333;" parent="24" vertex="1">
                    <mxGeometry x="59.375" y="101.82857142857142" width="23.75" height="18.857142857142858" as="geometry"/>
                </mxCell>
                <mxCell id="77" value="" style="whiteSpace=wrap;html=1;rounded=0;shadow=0;labelBackgroundColor=none;strokeWidth=1;fillColor=none;fontFamily=Architects Daughter;fontSize=12;align=center;comic=1;sketch=1;" parent="1" vertex="1">
                    <mxGeometry x="30" y="640" width="210" height="180" as="geometry"/>
                </mxCell>
                <mxCell id="88" value="EMS-1STRESP" style="text;html=1;strokeColor=none;fillColor=none;align=left;verticalAlign=middle;whiteSpace=wrap;rounded=0;shadow=0;comic=1;sketch=1;fontFamily=Architects Daughter;fontSize=16;fontStyle=1" parent="1" vertex="1">
                    <mxGeometry x="40" y="220" width="110" height="20" as="geometry"/>
                </mxCell>
                <mxCell id="90" value="CHEST PAIN" style="text;html=1;strokeColor=none;fillColor=none;align=left;verticalAlign=middle;whiteSpace=wrap;rounded=0;shadow=0;comic=1;sketch=1;fontFamily=Architects Daughter;fontSize=13;fontStyle=1" parent="1" vertex="1">
                    <mxGeometry x="40" y="240" width="96" height="20" as="geometry"/>
                </mxCell>
                <mxCell id="92" value="Lorem ipsum dolor sit amet, consectetur adipisicing elit, sed do eiusmod tempor incididunt ut labore et dolore magna aliqua.&amp;nbsp;" style="text;spacingTop=-5;whiteSpace=wrap;html=1;align=left;fontSize=12;fontFamily=Helvetica;fillColor=none;strokeColor=none;rounded=0;shadow=0;comic=1;sketch=1;" parent="1" vertex="1">
                    <mxGeometry x="40" y="262" width="175" height="70" as="geometry"/>
                </mxCell>
                <mxCell id="96" value="Richmond Fire and Emergency Services&lt;br&gt;&lt;font style=&quot;font-size: 24px&quot;&gt;Incident Tracking System&lt;/font&gt;" style="text;html=1;strokeColor=#23445d;fillColor=#bac8d3;align=center;verticalAlign=middle;whiteSpace=wrap;rounded=0;shadow=0;comic=1;sketch=1;fontFamily=Architects Daughter;fontSize=30;fontStyle=1;labelBackgroundColor=none;" parent="1" vertex="1">
                    <mxGeometry x="250" y="40" width="580" height="80" as="geometry"/>
                </mxCell>
                <mxCell id="97" value="" style="rounded=0;whiteSpace=wrap;html=1;shadow=0;labelBackgroundColor=none;comic=1;sketch=1;strokeColor=#6c8ebf;strokeWidth=2;fillColor=#dae8fc;fontFamily=Architects Daughter;fontSize=30;align=center;" parent="1" vertex="1">
                    <mxGeometry x="30" y="340" width="210" height="120" as="geometry"/>
                </mxCell>
                <mxCell id="93" value="HAZMAT" style="text;html=1;strokeColor=none;fillColor=none;align=left;verticalAlign=middle;whiteSpace=wrap;rounded=0;shadow=0;comic=1;sketch=1;fontFamily=Architects Daughter;fontSize=16;fontStyle=1" parent="1" vertex="1">
                    <mxGeometry x="40" y="349" width="110" height="20" as="geometry"/>
                </mxCell>
                <mxCell id="94" value="SMELL OR ODOR" style="text;html=1;strokeColor=none;fillColor=none;align=left;verticalAlign=middle;whiteSpace=wrap;rounded=0;shadow=0;comic=1;sketch=1;fontFamily=Architects Daughter;fontSize=13;fontStyle=1" parent="1" vertex="1">
                    <mxGeometry x="40" y="369" width="180" height="20" as="geometry"/>
                </mxCell>
                <mxCell id="95" value="Lorem ipsum dolor sit amet, consectetur adipisicing elit, sed do eiusmod tempor incididunt ut labore et dolore magna aliqua.&amp;nbsp;" style="text;spacingTop=-5;whiteSpace=wrap;html=1;align=left;fontSize=12;fontFamily=Helvetica;fillColor=none;strokeColor=none;rounded=0;shadow=0;comic=1;sketch=1;" parent="1" vertex="1">
                    <mxGeometry x="40" y="391" width="175" height="70" as="geometry"/>
                </mxCell>
                <mxCell id="100" value="Address Info" style="whiteSpace=wrap;html=1;shape=mxgraph.basic.roundRectCallout;dx=30;dy=15;size=5;boundedLbl=1;rounded=0;shadow=0;labelBackgroundColor=none;comic=1;sketch=1;strokeColor=#6c8ebf;strokeWidth=2;fillColor=#dae8fc;fontFamily=Architects Daughter;fontSize=17;align=center;fontStyle=1" parent="1" vertex="1">
                    <mxGeometry x="400" y="272" width="100" height="60" as="geometry"/>
                </mxCell>
                <mxCell id="103" value="" style="shape=mxgraph.signs.safety.biohazard;html=1;pointerEvents=1;fillColor=none;verticalLabelPosition=bottom;verticalAlign=top;align=center;rounded=0;shadow=0;dashed=0;fontFamily=Architects Daughter;strokeWidth=1;comic=1;sketch=1;strokeColor=#333333;" parent="1" vertex="1">
                    <mxGeometry x="597.68" y="438" width="54.64" height="50" as="geometry"/>
                </mxCell>
                <mxCell id="104" value="" style="shape=mxgraph.signs.transportation.firetruck;html=1;pointerEvents=1;fillColor=none;verticalLabelPosition=bottom;verticalAlign=top;align=center;rounded=0;shadow=0;dashed=0;fontFamily=Architects Daughter;strokeWidth=1;comic=1;sketch=1;strokeColor=#333333;" parent="1" vertex="1">
                    <mxGeometry x="370" y="438" width="102.2" height="32" as="geometry"/>
                </mxCell>
                <mxCell id="105" value="" style="shape=mxgraph.signs.transportation.ambulance;html=1;pointerEvents=1;fillColor=none;verticalLabelPosition=bottom;verticalAlign=top;align=center;rounded=0;shadow=0;dashed=0;fontFamily=Architects Daughter;strokeWidth=1;comic=1;sketch=1;strokeColor=#333333;" parent="1" vertex="1">
                    <mxGeometry x="681.76" y="292" width="58.24" height="40" as="geometry"/>
                </mxCell>
                <mxCell id="106" value="" style="shape=mxgraph.signs.healthcare.hospital_1;html=1;pointerEvents=1;fillColor=none;verticalLabelPosition=bottom;verticalAlign=top;align=center;rounded=0;shadow=0;dashed=0;fontFamily=Architects Daughter;strokeWidth=1;comic=1;sketch=1;strokeColor=#333333;" parent="1" vertex="1">
                    <mxGeometry x="681.76" y="240" width="42" height="42" as="geometry"/>
                </mxCell>
            </root>
        </mxGraphModel>
    </diagram>
</mxfile>
